<?xml version="1.0" encoding="UTF-8" standalone="no"?>
<!-- Generator: Adobe Illustrator 16.0.0, SVG Export Plug-In . SVG Version: 6.00 Build 0)  -->

<svg
   xmlns:dc="http://purl.org/dc/elements/1.1/"
   xmlns:cc="http://creativecommons.org/ns#"
   xmlns:rdf="http://www.w3.org/1999/02/22-rdf-syntax-ns#"
   xmlns:svg="http://www.w3.org/2000/svg"
   xmlns="http://www.w3.org/2000/svg"
   xmlns:xlink="http://www.w3.org/1999/xlink"
   xmlns:sodipodi="http://sodipodi.sourceforge.net/DTD/sodipodi-0.dtd"
   xmlns:inkscape="http://www.inkscape.org/namespaces/inkscape"
   version="1.1"
   id="Calque_1"
   x="0px"
   y="0px"
   width="520px"
   height="217px"
   viewBox="0 0 520 217"
   enable-background="new 0 0 520 217"
   xml:space="preserve"
   sodipodi:docname="LOGO_DIFFUZ_JAUNE.svg"
   inkscape:version="0.92.2 (5c3e80d, 2017-08-06)"><metadata
     id="metadata3887"><rdf:RDF><cc:Work
         rdf:about=""><dc:format>image/svg+xml</dc:format><dc:type
           rdf:resource="http://purl.org/dc/dcmitype/StillImage" /></cc:Work></rdf:RDF></metadata><defs
     id="defs3885" /><sodipodi:namedview
     pagecolor="#ffffff"
     bordercolor="#666666"
     borderopacity="1"
     objecttolerance="10"
     gridtolerance="10"
     guidetolerance="10"
     inkscape:pageopacity="0"
     inkscape:pageshadow="2"
     inkscape:window-width="1920"
     inkscape:window-height="1017"
     id="namedview3883"
     showgrid="false"
     inkscape:zoom="1.7259615"
     inkscape:cx="168.58022"
     inkscape:cy="130.50683"
     inkscape:window-x="-8"
     inkscape:window-y="-8"
     inkscape:window-maximized="1"
     inkscape:current-layer="g3880" /><g
     id="g3880"><path
       style="fill:#fecd1a"
       inkscape:connector-curvature="0"
       id="path3794"
       d="M 520,80.448 C 520,43.75 490.209,14 453.461,14 c -36.75,0 -67.539,29.75 -67.539,66.448 0,4.776 0.51,9.434 1.467,13.923 l -0.006,0.003 c 1.561,7.122 3.396,14.658 3.396,22.455 0,2.648 -0.102,5.263 -0.291,7.844 -0.467,3.885 -1.439,8.863 -3.516,14.375 -2.008,5.329 -4.473,9.627 -6.697,12.904 l 0.008,-0.001 c -0.127,0.188 -0.201,0.416 -0.201,0.66 0,0.651 0.529,1.18 1.182,1.18 l 0.002,0.007 c 9.398,0.521 19.729,1.576 31.102,1.576 9.258,0 18.271,-0.339 26.926,-0.981 h -0.129 c 19.926,-1.394 38.318,-8.342 53.623,-19.315 l -0.023,-0.015 C 509.278,122.972 520,102.463 520,80.448" /><path
       style="clip-rule:evenodd;fill:#ffffff;fill-rule:evenodd"
       inkscape:connector-curvature="0"
       id="path3796"
       d="m 454.538,54.938 c -11.506,0 -20.838,9.317 -20.838,20.81 0,10.062 11.971,23.575 17.854,32.022 1.627,2.339 4.428,2.221 6.156,-0.261 5.836,-8.385 17.666,-21.759 17.666,-31.761 -10e-4,-11.494 -9.329,-20.81 -20.838,-20.81" /><path
       style="fill:#ffffff"
       inkscape:connector-curvature="0"
       id="path3798"
       d="M 0,183.526 V 97.49 c 0,-1.57 1.192,-2.711 2.833,-2.711 h 35.491 c 18.939,0 40.562,7.847 40.562,45.516 0,37.667 -21.623,45.941 -40.562,45.941 H 2.833 C 1.192,186.236 0,185.096 0,183.526 m 36.237,-19.547 c 8.798,0 16.105,-3.139 16.105,-23.685 0,-20.547 -7.307,-23.258 -16.105,-23.258 h -9.693 v 46.942 h 9.693 z" /><path
       style="fill:#ffffff"
       inkscape:connector-curvature="0"
       id="path3800"
       d="m 89.624,183.526 v -63.065 c 0,-1.569 1.193,-2.71 2.833,-2.71 h 20.878 c 1.64,0 2.833,1.141 2.833,2.71 v 63.065 c 0,1.568 -1.194,2.711 -2.833,2.711 H 92.457 c -1.64,0 -2.833,-1.142 -2.833,-2.711 m 13.272,-99.448 c 7.009,0 12.675,5.422 12.675,12.128 0,6.706 -5.667,12.127 -12.675,12.127 -7.008,0 -12.675,-5.421 -12.675,-12.127 0,-6.706 5.667,-12.128 12.675,-12.128" /><path
       style="fill:#ffffff"
       inkscape:connector-curvature="0"
       id="path3802"
       d="m 134.213,183.526 v -50.081 h -6.562 c -1.641,0 -2.833,-1.141 -2.833,-2.711 v -10.273 c 0,-1.57 1.192,-2.711 2.833,-2.711 h 6.562 v -10.272 c 0,-13.839 5.07,-24.826 27.886,-24.826 5.369,0 8.501,0.571 10.737,1.141 1.641,0.428 2.536,1.569 2.536,3.567 v 12.127 c 0,1.57 -1.044,2.283 -2.386,2.283 -0.447,0 -1.044,-0.143 -1.641,-0.285 -0.895,-0.143 -2.534,-0.57 -4.324,-0.57 -3.729,0 -6.264,1.57 -6.264,7.133 v 9.703 h 31.755 c 1.64,0 2.833,1.141 2.833,2.711 v 10.273 c 0,1.57 -1.193,2.711 -2.833,2.711 h -31.755 v 50.081 c 0,1.568 -1.193,2.711 -2.834,2.711 h -20.877 c -1.641,-0.001 -2.833,-1.143 -2.833,-2.712" /><path
       style="fill:#ffffff"
       inkscape:connector-curvature="0"
       id="path3804"
       d="m 186.405,117.75 v -10.272 c 0,-13.839 5.07,-24.826 27.886,-24.826 5.369,0 8.5,0.57 10.736,1.141 1.641,0.427 2.536,1.569 2.536,3.567 v 12.128 c 0,1.569 -1.045,2.283 -2.386,2.283 -0.447,0 -1.044,-0.144 -1.641,-0.286 -0.895,-0.143 -2.535,-0.57 -4.324,-0.57 -3.728,0 -6.264,1.569 -6.264,7.133 v 9.703 h 11.782 c 1.64,0 2.833,1.142 2.833,2.711 v 10.273 c 0,1.57 -1.194,2.711 -2.833,2.711 h -11.782 v 50.08 c 0,1.569 -1.192,2.712 -2.833,2.712 h -20.877 c -1.641,0 -2.833,-1.143 -2.833,-2.712 v -50.08" /><path
       style="fill:#ffffff"
       inkscape:connector-curvature="0"
       id="path3806"
       d="m 236.211,163.267 v -42.805 c 0,-1.57 1.192,-2.712 2.833,-2.712 h 20.877 c 1.64,0 2.833,1.142 2.833,2.712 v 37.668 c 0,4.992 2.982,6.419 5.668,6.419 5.068,0 10.438,-2.425 10.438,-2.425 v -41.662 c 0,-1.57 1.191,-2.712 2.834,-2.712 h 20.877 c 1.641,0 2.834,1.142 2.834,2.712 v 49.51 c 0,3.139 0.895,4.566 2.832,4.566 v 1.712 c 0,4.992 -1.938,10.844 -14.166,10.844 -8.799,0 -14.168,-3.425 -15.063,-10.131 -4.92,5.138 -11.033,10.131 -22.069,10.131 -16.255,0 -20.728,-10.274 -20.728,-23.827" /><path
       style="fill:#ffffff"
       inkscape:connector-curvature="0"
       id="path3808"
       d="m 315.842,183.813 v -8.561 c 0,-2.283 0.598,-3.712 2.387,-5.995 l 24.156,-31.53 h -21.621 c -1.641,0 -2.834,-1.142 -2.834,-2.713 v -14.695 c 0,-1.569 1.043,-2.568 2.684,-2.568 h 50.703 c 1.49,0 2.535,0.999 2.535,2.425 v 8.561 c 0,2.282 -0.598,3.71 -2.387,5.992 l -24.01,31.532 h 24.457 c 1.641,0 2.832,1.142 2.832,2.712 v 14.694 c 0,1.57 -1.043,2.569 -2.682,2.569 h -53.686 c -1.491,0.001 -2.534,-0.998 -2.534,-2.423" /><g
       style="opacity:0.3"
       id="g3876"
       transform="translate(0,14)"><g
         id="g3874"><defs
           id="defs3867"><rect
             height="32.319"
             width="43.492001"
             y="95.449997"
             x="458.026"
             id="SVGID_1_" /></defs><clipPath
           id="SVGID_2_"><use
             height="100%"
             width="100%"
             y="0"
             x="0"
             style="overflow:visible"
             id="use3869"
             overflow="visible"
             xlink:href="#SVGID_1_" /></clipPath><path
           style="fill:#fefefe"
           inkscape:connector-curvature="0"
           id="path3872"
           d="m 482.315,116.474 c -6.635,4.295 -16.963,9.962 -24.289,11.251 12.9,0.777 36.793,-8.672 43.492,-32.275 -4.414,8.502 -10.578,15.443 -19.203,21.024"
           clip-path="url(#SVGID_2_)" /></g></g></g></svg>