<?xml version="1.0" encoding="UTF-8"?>
<!-- Generator: Adobe Illustrator 16.0.0, SVG Export Plug-In . SVG Version: 6.00 Build 0)  -->
<!DOCTYPE svg PUBLIC "-//W3C//DTD SVG 1.1//EN" "http://www.w3.org/Graphics/SVG/1.1/DTD/svg11.dtd">
<svg version="1.1" id="Calque_1" xmlns="http://www.w3.org/2000/svg" xmlns:xlink="http://www.w3.org/1999/xlink" x="0px" y="0px" width="520px" height="217px" viewBox="0 0 520 217" enable-background="new 0 0 520 217" xml:space="preserve">
<g>
	<g>
		<path fill="#FECD1A" d="M520,66.448C520,29.75,490.209,0,453.461,0c-36.75,0-67.539,29.75-67.539,66.448    c0,4.776,0.51,9.434,1.467,13.923l-0.006,0.003c1.561,7.122,3.396,14.658,3.396,22.455c0,2.648-0.102,5.263-0.291,7.844    c-0.467,3.885-1.439,8.863-3.516,14.375c-2.008,5.329-4.473,9.627-6.697,12.904l0.008-0.001c-0.127,0.188-0.201,0.416-0.201,0.66    c0,0.651,0.529,1.18,1.182,1.18l0.002,0.007c9.398,0.521,19.729,1.576,31.102,1.576c9.258,0,18.271-0.339,26.926-0.981h-0.129    c19.926-1.394,38.318-8.342,53.623-19.315l-0.023-0.015C509.278,108.972,520,88.463,520,66.448"/>
		<path fill-rule="evenodd" clip-rule="evenodd" fill="#FFFFFF" d="M454.538,40.938c-11.506,0-20.838,9.317-20.838,20.81    c0,10.062,11.971,23.575,17.854,32.022c1.627,2.339,4.428,2.221,6.156-0.261c5.836-8.385,17.666-21.759,17.666-31.761    C475.375,50.254,466.047,40.938,454.538,40.938"/>
		<path fill="#002A40" d="M0,169.526V83.49c0-1.57,1.192-2.711,2.833-2.711h35.491c18.939,0,40.562,7.847,40.562,45.516    c0,37.667-21.623,45.941-40.562,45.941H2.833C1.192,172.236,0,171.096,0,169.526 M36.237,149.979    c8.798,0,16.105-3.139,16.105-23.685c0-20.547-7.307-23.258-16.105-23.258h-9.693v46.942H36.237z"/>
		<path fill="#002A40" d="M89.624,169.526v-63.065c0-1.569,1.193-2.71,2.833-2.71h20.878c1.64,0,2.833,1.141,2.833,2.71v63.065    c0,1.568-1.194,2.711-2.833,2.711H92.457C90.817,172.237,89.624,171.095,89.624,169.526 M102.896,70.078    c7.009,0,12.675,5.422,12.675,12.128s-5.667,12.127-12.675,12.127c-7.008,0-12.675-5.421-12.675-12.127    S95.888,70.078,102.896,70.078"/>
		<path fill="#002A40" d="M134.213,169.526v-50.081h-6.562c-1.641,0-2.833-1.141-2.833-2.711v-10.273    c0-1.57,1.192-2.711,2.833-2.711h6.562V93.478c0-13.839,5.07-24.826,27.886-24.826c5.369,0,8.501,0.571,10.737,1.141    c1.641,0.428,2.536,1.569,2.536,3.567v12.127c0,1.57-1.044,2.283-2.386,2.283c-0.447,0-1.044-0.143-1.641-0.285    c-0.895-0.143-2.534-0.57-4.324-0.57c-3.729,0-6.264,1.57-6.264,7.133v9.703h31.755c1.64,0,2.833,1.141,2.833,2.711v10.273    c0,1.57-1.193,2.711-2.833,2.711h-31.755v50.081c0,1.568-1.193,2.711-2.834,2.711h-20.877    C135.405,172.237,134.213,171.095,134.213,169.526"/>
		<path fill="#002A40" d="M186.405,103.75V93.478c0-13.839,5.07-24.826,27.886-24.826c5.369,0,8.5,0.57,10.736,1.141    c1.641,0.427,2.536,1.569,2.536,3.567v12.128c0,1.569-1.045,2.283-2.386,2.283c-0.447,0-1.044-0.144-1.641-0.286    c-0.895-0.143-2.535-0.57-4.324-0.57c-3.728,0-6.264,1.569-6.264,7.133v9.703h11.782c1.64,0,2.833,1.142,2.833,2.711v10.273    c0,1.57-1.194,2.711-2.833,2.711h-11.782v50.08c0,1.569-1.192,2.712-2.833,2.712h-20.877c-1.641,0-2.833-1.143-2.833-2.712v-50.08    "/>
		<path fill="#002A40" d="M236.211,149.267v-42.805c0-1.57,1.192-2.712,2.833-2.712h20.877c1.64,0,2.833,1.142,2.833,2.712v37.668    c0,4.992,2.982,6.419,5.668,6.419c5.068,0,10.438-2.425,10.438-2.425v-41.662c0-1.57,1.191-2.712,2.834-2.712h20.877    c1.641,0,2.834,1.142,2.834,2.712v49.51c0,3.139,0.895,4.566,2.832,4.566v1.712c0,4.992-1.938,10.844-14.166,10.844    c-8.799,0-14.168-3.425-15.063-10.131c-4.92,5.138-11.033,10.131-22.069,10.131C240.684,173.094,236.211,162.82,236.211,149.267"/>
		<path fill="#002A40" d="M315.842,169.813v-8.561c0-2.283,0.598-3.712,2.387-5.995l24.156-31.53h-21.621    c-1.641,0-2.834-1.142-2.834-2.713v-14.695c0-1.569,1.043-2.568,2.684-2.568h50.703c1.49,0,2.535,0.999,2.535,2.425v8.561    c0,2.282-0.598,3.71-2.387,5.992l-24.01,31.532h24.457c1.641,0,2.832,1.142,2.832,2.712v14.694c0,1.57-1.043,2.569-2.682,2.569    h-53.686C316.885,172.237,315.842,171.238,315.842,169.813"/>
		<path fill="#002A40" d="M0.125,210.072v-17.261c0-0.314,0.252-0.543,0.599-0.543h4.61c4.515,0,6.283,2.203,6.283,5.552    c0,3.407-2.272,5.611-6.567,5.611H2.46v6.641c0,0.314-0.252,0.544-0.6,0.544H0.724C0.377,210.616,0.125,210.387,0.125,210.072     M5.018,201.714c3,0,4.232-1.403,4.232-3.894c0-2.375-1.074-3.835-4.357-3.835H2.46v7.729H5.018z"/>
		<path fill="#002A40" d="M13.448,203.746c0-4.18,2.336-7.154,6.662-7.154c3.725,0,5.777,2.002,5.777,5.438    c0,0.572-0.063,1.287-0.221,1.917H15.596c0,3.292,1.8,5.268,5.209,5.268c2.052,0,3.505-0.888,4.072-1.174    c0.159-0.086,0.349-0.144,0.475-0.144c0.284,0,0.441,0.172,0.441,0.458v0.43c0,0.344-0.094,0.601-0.599,0.887    c-0.537,0.314-2.052,1.231-4.768,1.231C15.689,210.902,13.448,207.925,13.448,203.746 M23.709,202.429    c0.063-0.343,0.063-0.658,0.063-0.944c0-2.003-1.578-3.234-3.568-3.234c-2.967,0-4.104,1.804-4.483,4.179H23.709z"/>
		<path fill="#002A40" d="M29.266,208.669v-10.245h-1.167c-0.348,0-0.601-0.231-0.601-0.546v-0.458c0-0.314,0.253-0.543,0.601-0.543    h1.167v-2.775c0-0.317,0.253-0.546,0.601-0.546h0.947c0.347,0,0.6,0.229,0.6,0.546v2.775h2.368c0.348,0,0.6,0.229,0.6,0.543v0.458    c0,0.314-0.252,0.546-0.6,0.546h-2.368v9.816c0,0.63,0.41,0.945,1.042,0.945c0.6,0,0.884-0.087,1.168-0.173    c0.158-0.058,0.316-0.143,0.505-0.143c0.252,0,0.379,0.143,0.379,0.372v0.344c0,0.371-0.159,0.63-0.442,0.744    c-0.663,0.286-1.231,0.429-2.462,0.429C30.307,210.759,29.266,210.072,29.266,208.669"/>
		<path fill="#002A40" d="M36.749,193.355c0-0.688,0.6-1.23,1.358-1.23c0.758,0,1.358,0.543,1.358,1.23s-0.6,1.23-1.358,1.23    C37.348,194.586,36.749,194.043,36.749,193.355 M37.033,210.072V197.42c0-0.314,0.252-0.542,0.6-0.542h0.947    c0.347,0,0.6,0.228,0.6,0.542v12.652c0,0.314-0.253,0.544-0.6,0.544h-0.947C37.285,210.616,37.033,210.387,37.033,210.072"/>
		<path fill="#002A40" d="M43.284,208.669v-10.245h-1.168c-0.347,0-0.6-0.231-0.6-0.546v-0.458c0-0.314,0.253-0.543,0.6-0.543h1.168    v-2.775c0-0.317,0.252-0.546,0.6-0.546h0.947c0.346,0,0.599,0.229,0.599,0.546v2.775h2.369c0.348,0,0.6,0.229,0.6,0.543v0.458    c0,0.314-0.252,0.546-0.6,0.546h-2.369v9.816c0,0.63,0.411,0.945,1.042,0.945c0.6,0,0.884-0.087,1.168-0.173    c0.158-0.058,0.315-0.143,0.505-0.143c0.252,0,0.378,0.143,0.378,0.372v0.344c0,0.371-0.158,0.63-0.441,0.744    c-0.663,0.286-1.232,0.429-2.463,0.429C44.326,210.759,43.284,210.072,43.284,208.669"/>
		<path fill="#002A40" d="M50.325,203.746c0-4.18,2.335-7.154,6.662-7.154c3.726,0,5.778,2.002,5.778,5.438    c0,0.572-0.063,1.287-0.222,1.917H52.472c0,3.292,1.8,5.268,5.21,5.268c2.051,0,3.504-0.888,4.072-1.174    c0.158-0.086,0.348-0.144,0.474-0.144c0.284,0,0.441,0.172,0.441,0.458v0.43c0,0.344-0.095,0.601-0.6,0.887    c-0.537,0.314-2.053,1.231-4.768,1.231C52.567,210.902,50.325,207.925,50.325,203.746 M60.586,202.429    c0.063-0.343,0.063-0.658,0.063-0.944c0-2.003-1.579-3.234-3.567-3.234c-2.968,0-4.104,1.804-4.484,4.179H60.586z"/>
		<path fill="#002A40" d="M65.511,210.015c-0.442-0.258-0.727-0.544-0.727-0.887v-0.658c0-0.287,0.159-0.459,0.475-0.459    c0.158,0,0.284,0.03,0.441,0.115c0.664,0.344,1.927,1.145,3.948,1.145c1.326,0,2.747-0.572,2.747-2.261    c0-1.402-0.758-2.176-3.126-2.663c-1.927-0.4-4.104-1.517-4.104-3.893c0-2.403,2.021-3.863,4.484-3.863    c2.021,0,2.999,0.515,3.63,0.857c0.537,0.287,0.726,0.545,0.726,0.917v0.659c0,0.285-0.125,0.457-0.473,0.457    c-0.189,0-0.284-0.058-0.442-0.144c-0.632-0.344-1.294-1.174-3.252-1.174c-1.642,0-2.652,0.631-2.652,2.118    c0,1.088,0.853,1.947,2.652,2.319c2.62,0.543,4.673,1.546,4.673,4.179c0,2.662-2.241,4.094-4.894,4.094    C67.627,210.874,66.206,210.387,65.511,210.015"/>
		<path fill="#002A40" d="M82.277,206.639c0-2.118,1.546-4.582,6.284-4.582c0.789,0,1.925,0.086,2.936,0.26v-0.145    c0-2.605-0.157-3.893-2.715-3.893c-1.769,0-3.789,0.63-4.642,1.116c-0.158,0.086-0.284,0.143-0.443,0.143    c-0.283,0-0.473-0.171-0.473-0.457v-0.802c0-0.315,0.221-0.572,0.758-0.831c1.137-0.515,3.348-0.857,5.02-0.857    c4.2,0,4.642,1.975,4.642,4.722v7.328c0,0.659,0.253,0.917,0.789,0.917v0.343c0,0.401-0.441,0.887-1.547,0.887    c-0.789,0-1.39-0.372-1.39-1.46v-0.229c-0.82,0.858-2.084,1.718-4.389,1.718C84.582,210.816,82.277,209.758,82.277,206.639     M91.496,207.41v-3.578c-0.916-0.172-1.957-0.258-2.652-0.258c-3.157,0-4.42,1.231-4.42,3.034c0,2.09,1.389,2.606,3.158,2.606    C89.287,209.215,90.833,208.354,91.496,207.41"/>
		<path fill="#002A40" d="M96.484,203.746c0-4.466,2.778-7.155,6.883-7.155c1.958,0,3.536,0.486,4.137,0.858    c0.474,0.286,0.726,0.602,0.726,0.944v0.515c0,0.287-0.158,0.458-0.442,0.458c-0.157,0-0.316-0.057-0.474-0.143    c-0.568-0.315-2.084-0.943-3.725-0.943c-3.031,0-4.958,1.888-4.958,5.466s1.926,5.468,4.958,5.468c1.641,0,3.157-0.63,3.725-0.945    c0.158-0.086,0.348-0.142,0.474-0.142c0.284,0,0.442,0.17,0.442,0.457v0.515c0,0.344-0.252,0.658-0.726,0.944    c-0.568,0.344-2.178,0.859-4.137,0.859C99.263,210.902,96.484,208.212,96.484,203.746"/>
		<path fill="#002A40" d="M111.545,208.669v-10.245h-1.168c-0.348,0-0.6-0.231-0.6-0.546v-0.458c0-0.314,0.252-0.543,0.6-0.543    h1.168v-2.775c0-0.317,0.252-0.546,0.6-0.546h0.947c0.346,0,0.599,0.229,0.599,0.546v2.775h2.369c0.348,0,0.6,0.229,0.6,0.543    v0.458c0,0.314-0.252,0.546-0.6,0.546h-2.369v9.816c0,0.63,0.412,0.945,1.043,0.945c0.6,0,0.884-0.087,1.168-0.173    c0.158-0.058,0.315-0.143,0.505-0.143c0.252,0,0.378,0.143,0.378,0.372v0.344c0,0.371-0.158,0.63-0.441,0.744    c-0.663,0.286-1.232,0.429-2.464,0.429C112.586,210.759,111.545,210.072,111.545,208.669"/>
		<path fill="#002A40" d="M119.027,193.355c0-0.688,0.6-1.23,1.358-1.23c0.757,0,1.358,0.543,1.358,1.23s-0.601,1.23-1.358,1.23    C119.627,194.586,119.027,194.043,119.027,193.355 M119.312,210.072V197.42c0-0.314,0.253-0.542,0.6-0.542h0.947    c0.348,0,0.601,0.228,0.601,0.542v12.652c0,0.314-0.253,0.544-0.601,0.544h-0.947    C119.564,210.616,119.312,210.387,119.312,210.072"/>
		<path fill="#002A40" d="M124.521,203.746c0-4.208,2.368-7.155,6.851-7.155c4.484,0,6.852,2.947,6.852,7.155    s-2.368,7.156-6.852,7.156C126.889,210.902,124.521,207.954,124.521,203.746 M136.077,203.746c0-3.549-1.799-5.438-4.705-5.438    c-2.904,0-4.704,1.89-4.704,5.438c0,3.551,1.8,5.438,4.704,5.438C134.277,209.185,136.077,207.297,136.077,203.746"/>
		<path fill="#002A40" d="M141.286,210.072V197.42c0-0.314,0.253-0.542,0.6-0.542h0.947c0.347,0,0.6,0.228,0.6,0.542v0.43    c0.599-0.143,2.305-1.146,4.894-1.146c2.652,0,4.546,1.003,4.546,4.209v9.159c0,0.314-0.252,0.544-0.6,0.544h-0.947    c-0.348,0-0.6-0.229-0.6-0.544v-9.131c0-1.604-0.852-2.376-2.715-2.376c-2.463,0-4.578,0.916-4.578,0.916v10.591    c0,0.314-0.253,0.544-0.6,0.544h-0.947C141.539,210.616,141.286,210.387,141.286,210.072"/>
		<path fill="#002A40" d="M156.22,210.015c-0.441-0.258-0.726-0.544-0.726-0.887v-0.658c0-0.287,0.158-0.459,0.474-0.459    c0.158,0,0.285,0.03,0.442,0.115c0.664,0.344,1.927,1.145,3.947,1.145c1.326,0,2.747-0.572,2.747-2.261    c0-1.402-0.758-2.176-3.125-2.663c-1.927-0.4-4.105-1.517-4.105-3.893c0-2.403,2.021-3.863,4.484-3.863    c2.021,0,3,0.515,3.631,0.857c0.536,0.287,0.726,0.545,0.726,0.917v0.659c0,0.285-0.127,0.457-0.473,0.457    c-0.189,0-0.285-0.058-0.443-0.144c-0.631-0.344-1.294-1.174-3.251-1.174c-1.642,0-2.652,0.631-2.652,2.118    c0,1.088,0.852,1.947,2.652,2.319c2.621,0.543,4.673,1.546,4.673,4.179c0,2.662-2.242,4.094-4.894,4.094    C158.336,210.874,156.915,210.387,156.22,210.015"/>
		<path fill="#002A40" d="M173.712,216.255V197.42c0-0.314,0.253-0.543,0.6-0.543h0.947c0.348,0,0.601,0.229,0.601,0.543v1.232    c0.663-0.975,2.335-2.062,4.482-2.062c4.263,0,6.284,2.977,6.284,7.155s-2.021,7.156-6.284,7.156    c-2.147,0-3.819-1.088-4.482-2.061v7.413c0,0.314-0.253,0.544-0.601,0.544h-0.947    C173.965,216.799,173.712,216.569,173.712,216.255 M184.479,203.746c0-3.836-1.642-5.438-4.137-5.438    c-2.305,0-3.915,1.402-4.482,2.719v5.439c0.568,1.316,2.178,2.719,4.482,2.719C182.837,209.185,184.479,207.582,184.479,203.746"/>
		<path fill="#002A40" d="M188.962,203.746c0-4.208,2.368-7.155,6.851-7.155c4.484,0,6.852,2.947,6.852,7.155    s-2.368,7.156-6.852,7.156C191.33,210.902,188.962,207.954,188.962,203.746 M200.517,203.746c0-3.549-1.799-5.438-4.705-5.438    c-2.904,0-4.704,1.89-4.704,5.438c0,3.551,1.8,5.438,4.704,5.438C198.718,209.185,200.517,207.297,200.517,203.746"/>
		<path fill="#002A40" d="M205.6,206.58v-9.16c0-0.314,0.253-0.542,0.601-0.542h0.947c0.347,0,0.601,0.228,0.601,0.542v9.132    c0,1.603,0.851,2.376,2.715,2.376c1.168,0,3-0.573,4.578-1.775v-9.732c0-0.314,0.252-0.542,0.6-0.542h0.946    c0.348,0,0.601,0.228,0.601,0.542v11.221c0,0.659,0.252,0.917,0.79,0.917v0.343c0,0.401-0.442,0.887-1.548,0.887    c-0.789,0-1.389-0.372-1.389-1.46v-0.457c-1.61,1.26-3.567,1.917-5.21,1.917C207.527,210.787,205.6,209.786,205.6,206.58"/>
		<path fill="#002A40" d="M220.977,210.072V197.42c0-0.314,0.252-0.542,0.6-0.542h0.947c0.347,0,0.601,0.228,0.601,0.542v0.916    c1.2-0.944,2.746-1.458,3.852-1.458c0.885,0,1.832,0.399,1.832,1.029v1.001c0,0.286-0.189,0.458-0.505,0.458    c-0.158,0-0.285-0.028-0.41-0.114c-0.474-0.286-0.821-0.572-1.642-0.572c-0.821,0-1.99,0.486-3.125,1.316v10.076    c0,0.314-0.253,0.544-0.601,0.544h-0.947C221.229,210.616,220.977,210.387,220.977,210.072"/>
		<path fill="#002A40" d="M246.171,195.846c0.883,0,1.832,0.401,1.832,1.031v1.001c0,0.286-0.19,0.458-0.474,0.458    c-0.157,0-0.285-0.028-0.442-0.113c-0.474-0.287-0.821-0.573-1.642-0.573c-0.284,0-0.537,0.029-0.821,0.115    c1.105,0.857,1.736,2.146,1.736,3.72c0,2.978-2.305,4.895-5.463,4.895c-0.567,0-1.104-0.056-1.61-0.171    c-0.536,0.229-0.916,0.716-0.916,1.403c0,0.657,0.348,1.145,0.853,1.374c0.631-0.086,1.294-0.144,2.052-0.144    c4.199,0,6.347,1.659,6.347,4.121c0,2.463-2.147,4.037-6.347,4.037c-4.2,0-6.347-1.574-6.347-4.037    c0-1.487,0.789-2.689,2.337-3.405c-0.569-0.487-0.885-1.146-0.885-1.946c0-0.889,0.412-1.604,1.169-2.118    c-1.294-0.86-2.115-2.263-2.115-4.009c0-2.976,2.305-4.894,5.461-4.894c0.821,0,1.611,0.143,2.306,0.399    C244.088,196.189,245.192,195.846,246.171,195.846 M245.603,212.963c0-1.603-1.578-2.347-4.325-2.347    c-2.747,0-4.326,0.744-4.326,2.347c0,1.604,1.579,2.348,4.326,2.348C244.024,215.311,245.603,214.566,245.603,212.963     M244.309,201.484c0-1.86-1.073-3.348-3.411-3.348c-2.367,0-3.41,1.487-3.41,3.348c0,1.861,1.042,3.35,3.41,3.35    C243.235,204.834,244.309,203.346,244.309,201.484"/>
		<path fill="#002A40" d="M249.833,210.072V197.42c0-0.314,0.252-0.542,0.6-0.542h0.947c0.347,0,0.6,0.228,0.6,0.542v0.916    c1.2-0.944,2.746-1.458,3.852-1.458c0.885,0,1.832,0.399,1.832,1.029v1.001c0,0.286-0.189,0.458-0.505,0.458    c-0.158,0-0.285-0.028-0.41-0.114c-0.474-0.286-0.821-0.572-1.642-0.572s-1.989,0.486-3.125,1.316v10.076    c0,0.314-0.253,0.544-0.6,0.544h-0.947C250.086,210.616,249.833,210.387,249.833,210.072"/>
		<path fill="#002A40" d="M258.579,206.639c0-2.118,1.546-4.582,6.285-4.582c0.789,0,1.924,0.086,2.936,0.26v-0.145    c0-2.605-0.158-3.893-2.715-3.893c-1.768,0-3.789,0.63-4.643,1.116c-0.156,0.086-0.283,0.143-0.442,0.143    c-0.284,0-0.474-0.171-0.474-0.457v-0.802c0-0.315,0.221-0.572,0.76-0.831c1.135-0.515,3.346-0.857,5.018-0.857    c4.201,0,4.643,1.975,4.643,4.722v7.328c0,0.659,0.252,0.917,0.789,0.917v0.343c0,0.401-0.443,0.887-1.547,0.887    c-0.789,0-1.389-0.372-1.389-1.46v-0.229c-0.822,0.858-2.084,1.718-4.389,1.718C260.883,210.816,258.579,209.758,258.579,206.639     M267.799,207.41v-3.578c-0.916-0.172-1.957-0.258-2.652-0.258c-3.156,0-4.422,1.231-4.422,3.034c0,2.09,1.393,2.606,3.158,2.606    C265.588,209.215,267.135,208.354,267.799,207.41"/>
		<path fill="#002A40" d="M273.512,210.072V197.42c0-0.314,0.254-0.542,0.602-0.542h0.947c0.346,0,0.6,0.228,0.6,0.542v0.43    c0.6-0.143,2.305-1.146,4.893-1.146c2.654,0,4.549,1.003,4.549,4.209v9.159c0,0.314-0.254,0.544-0.602,0.544h-0.947    c-0.346,0-0.6-0.229-0.6-0.544v-9.131c0-1.604-0.852-2.376-2.715-2.376c-2.463,0-4.578,0.916-4.578,0.916v10.591    c0,0.314-0.254,0.544-0.6,0.544h-0.947C273.766,210.616,273.512,210.387,273.512,210.072"/>
		<path fill="#002A40" d="M288.038,203.746c0-4.18,2.02-7.155,6.281-7.155c2.148,0,3.82,1.087,4.484,2.061v-7.986    c0-0.315,0.252-0.544,0.602-0.544h0.945c0.348,0,0.6,0.229,0.6,0.544v17.976c0,0.658,0.252,0.917,0.791,0.917v0.343    c0,0.401-0.443,0.887-1.547,0.887c-0.789,0-1.391-0.372-1.391-1.46v-0.485c-0.664,0.973-2.336,2.061-4.484,2.061    C290.057,210.902,288.038,207.925,288.038,203.746 M298.803,206.465v-5.438c-0.568-1.315-2.178-2.719-4.484-2.719    c-2.494,0-4.137,1.603-4.137,5.438s1.643,5.439,4.137,5.439C296.625,209.186,298.235,207.782,298.803,206.465"/>
		<path fill="#002A40" d="M304.422,210.015c-0.441-0.258-0.727-0.544-0.727-0.887v-0.658c0-0.287,0.158-0.459,0.475-0.459    c0.158,0,0.283,0.03,0.441,0.115c0.664,0.344,1.926,1.145,3.947,1.145c1.326,0,2.748-0.572,2.748-2.261    c0-1.402-0.76-2.176-3.127-2.663c-1.926-0.4-4.105-1.517-4.105-3.893c0-2.403,2.021-3.863,4.484-3.863    c2.021,0,3,0.515,3.631,0.857c0.537,0.287,0.727,0.545,0.727,0.917v0.659c0,0.285-0.127,0.457-0.475,0.457    c-0.189,0-0.283-0.058-0.441-0.144c-0.633-0.344-1.295-1.174-3.252-1.174c-1.641,0-2.652,0.631-2.652,2.118    c0,1.088,0.852,1.947,2.652,2.319c2.619,0.543,4.674,1.546,4.674,4.179c0,2.662-2.242,4.094-4.896,4.094    C306.538,210.874,305.118,210.387,304.422,210.015"/>
		<path fill="#002A40" d="M321.188,203.746c0-4.18,2.021-7.155,6.285-7.155c2.146,0,3.818,1.087,4.482,2.061v-7.986    c0-0.315,0.252-0.544,0.602-0.544h0.945c0.348,0,0.6,0.229,0.6,0.544v17.976c0,0.658,0.252,0.917,0.789,0.917v0.343    c0,0.401-0.441,0.887-1.547,0.887c-0.787,0-1.389-0.372-1.389-1.46v-0.485c-0.664,0.973-2.336,2.061-4.482,2.061    C323.209,210.902,321.188,207.925,321.188,203.746 M331.956,206.465v-5.438c-0.568-1.315-2.18-2.719-4.482-2.719    c-2.494,0-4.139,1.603-4.139,5.438s1.645,5.439,4.139,5.439C329.776,209.186,331.387,207.782,331.956,206.465"/>
		<path fill="#002A40" d="M337.165,203.746c0-4.18,2.338-7.155,6.662-7.155c3.725,0,5.777,2.003,5.777,5.438    c0,0.572-0.063,1.287-0.221,1.917h-10.072c0,3.293,1.801,5.268,5.209,5.268c2.055,0,3.506-0.888,4.074-1.174    c0.158-0.086,0.348-0.144,0.473-0.144c0.285,0,0.441,0.172,0.441,0.458v0.43c0,0.344-0.094,0.601-0.598,0.887    c-0.537,0.314-2.053,1.231-4.768,1.231C339.405,210.902,337.165,207.925,337.165,203.746 M347.426,202.429    c0.063-0.342,0.063-0.658,0.063-0.944c0-2.003-1.578-3.234-3.568-3.234c-2.967,0-4.104,1.804-4.482,4.179H347.426z     M342.69,195.503c-0.348,0-0.631-0.229-0.285-0.573l2.621-2.633c0.348-0.345,0.76-0.544,1.105-0.544h1.168    c0.348,0,0.57,0.257,0.221,0.571l-2.936,2.634c-0.348,0.316-0.758,0.545-1.105,0.545H342.69z"/>
		<path fill="#002A40" d="M352.983,210.072v-11.649h-1.389c-0.348,0-0.6-0.23-0.6-0.545v-0.458c0-0.314,0.252-0.542,0.6-0.542h1.389    v-3.923c0-2.262,1.861-3.121,3.693-3.121c0.885,0,1.326,0.087,1.674,0.201c0.316,0.114,0.506,0.314,0.506,0.544v0.83    c0,0.257-0.125,0.401-0.412,0.401c-0.158,0-0.314-0.029-0.504-0.086c-0.348-0.086-0.662-0.201-1.326-0.201    c-0.854,0-1.484,0.315-1.484,1.432v3.923h2.684c0.348,0,0.6,0.228,0.6,0.542v0.458c0,0.314-0.252,0.545-0.6,0.545h-2.684v11.649    c0,0.314-0.252,0.544-0.598,0.544h-0.949C353.235,210.616,352.983,210.387,352.983,210.072 M360.024,193.27    c0-0.628,0.568-1.145,1.262-1.145c0.695,0,1.264,0.517,1.264,1.145c0,0.63-0.568,1.146-1.264,1.146    C360.592,194.415,360.024,193.899,360.024,193.27 M360.213,210.072V197.42c0-0.314,0.252-0.542,0.6-0.542h0.947    c0.348,0,0.6,0.228,0.6,0.542v12.652c0,0.314-0.252,0.544-0.6,0.544h-0.947C360.465,210.616,360.213,210.387,360.213,210.072"/>
		<path fill="#002A40" d="M365.833,210.015c-0.441-0.258-0.727-0.544-0.727-0.887v-0.658c0-0.287,0.158-0.459,0.475-0.459    c0.156,0,0.283,0.03,0.441,0.115c0.664,0.344,1.926,1.145,3.947,1.145c1.326,0,2.746-0.572,2.746-2.261    c0-1.402-0.758-2.176-3.127-2.663c-1.926-0.4-4.104-1.517-4.104-3.893c0-2.403,2.021-3.863,4.484-3.863    c2.02,0,3,0.515,3.631,0.857c0.535,0.287,0.727,0.545,0.727,0.917v0.659c0,0.285-0.127,0.457-0.475,0.457    c-0.189,0-0.283-0.058-0.441-0.144c-0.633-0.344-1.295-1.174-3.254-1.174c-1.639,0-2.65,0.631-2.65,2.118    c0,1.088,0.852,1.947,2.65,2.319c2.621,0.543,4.674,1.546,4.674,4.179c0,2.662-2.24,4.094-4.893,4.094    C367.948,210.874,366.526,210.387,365.833,210.015"/>
		<g opacity="0.3">
			<g>
				<defs>
					<rect id="SVGID_1_" x="458.026" y="95.45" width="43.492" height="32.319"/>
				</defs>
				<clipPath id="SVGID_2_">
					<use xlink:href="#SVGID_1_" overflow="visible"/>
				</clipPath>
				<path clip-path="url(#SVGID_2_)" fill="#FEFEFE" d="M482.315,116.474c-6.635,4.295-16.963,9.962-24.289,11.251      c12.9,0.777,36.793-8.672,43.492-32.275C497.104,103.952,490.94,110.893,482.315,116.474"/>
			</g>
		</g>
	</g>
</g>
</svg>